<svg width="2000" height="2000" viewBox="0 0 2000 2000" fill="none" xmlns="http://www.w3.org/2000/svg">
<path d="M2000 1125.01C2000 1161.31 1974.2 1191.44 1940.12 1198.41C1935.25 1199.38 1930.22 1199.87 1925.03 1199.87H1674.65C1633.1 1199.87 1599.51 1233.41 1599.51 1274.89V1524.91C1599.51 1550.84 1586.37 1573.52 1566.41 1587.13C1558.46 1592.48 1549.37 1596.37 1539.64 1598.48C1534.77 1599.45 1529.74 1599.94 1524.54 1599.94H1274.16C1232.62 1599.94 1199.03 1633.48 1199.03 1674.96V1924.98C1199.03 1966.46 1165.44 2000 1123.89 2000H873.509C831.968 2000 798.377 1966.46 798.377 1924.98V1674.96C798.377 1633.48 831.968 1599.94 873.509 1599.94H1123.89C1165.44 1599.94 1199.03 1566.39 1199.03 1524.91V1274.89C1199.03 1233.41 1232.62 1199.87 1274.16 1199.87H1524.54C1566.09 1199.87 1599.68 1166.33 1599.68 1124.85V799.806C1599.68 579.438 1421.18 400.551 1200.49 399.903C979.96 400.713 801.298 579.438 801.298 799.806V1124.85C801.298 1166.33 767.708 1199.87 726.166 1199.87H475.781C434.239 1199.87 400.649 1233.41 400.649 1274.89V1924.98C400.649 1966.46 367.059 2000 325.517 2000H75.1319C33.5903 2000 0 1966.46 0 1924.98V1274.89C0 1233.41 33.5903 1199.87 75.1319 1199.87H325.517C367.059 1199.87 400.649 1166.33 400.649 1124.85V798.347C400.649 357.45 758.621 0 1200.32 0C1642.03 0 2000 357.45 2000 798.509V1125.01Z" fill="white"/>
</svg>
